<svg height="480pt" viewBox="0 0 480 480" width="480pt" xmlns="http://www.w3.org/2000/svg"><path d="m16 192h128c8.835938 0 16-7.164062 16-16v-8c-.035156-30.914062-25.085938-55.964844-56-56h-48c-30.914062.035156-55.9648438 25.085938-56 56v8c0 8.835938 7.164062 16 16 16zm128-24v8h-55.296875l20.351563-47.488281c19.921874 2.507812 34.882812 19.414062 34.945312 39.488281zm-52.128906-40-11.871094 27.6875-11.871094-27.6875zm-75.871094 40c.0625-20.074219 15.023438-36.980469 34.945312-39.488281l20.351563 47.488281h-55.296875zm0 0"/><path d="m112 152h16v16h-16zm0 0"/><path d="m120 72v-16c4.417969 0 8-3.582031 8-8v-8c-.027344-22.082031-17.917969-39.9726562-40-40h-16c-22.082031.0273438-39.972656 17.917969-40 40v8c0 4.417969 3.582031 8 8 8v16c0 22.089844 17.910156 40 40 40s40-17.910156 40-40zm-48-56h16c13.253906 0 24 10.746094 24 24h-30.113281l-14.3125-7.160156c-3.078125-1.539063-6.796875-.929688-9.230469 1.503906l-5.65625 5.65625h-4.6875c0-13.253906 10.746094-24 24-24zm8 80c-13.253906 0-24-10.746094-24-24v-16c2.121094 0 4.15625-.84375 5.65625-2.34375l3.917969-3.921875 10.851562 5.425781c1.109375.554688 2.332031.839844 3.574219.839844h24v16c0 13.253906-10.746094 24-24 24zm0 0"/><path d="m424 112h-48c-30.914062.035156-55.964844 25.085938-56 56v8c0 8.835938 7.164062 16 16 16h128c8.835938 0 16-7.164062 16-16v-8c-.035156-30.914062-25.085938-55.964844-56-56zm-12.128906 16-11.871094 27.6875-11.871094-27.6875zm-75.871094 40c.0625-20.074219 15.023438-36.980469 34.945312-39.488281l20.351563 47.488281h-55.296875zm72.703125 8 20.351563-47.488281c19.921874 2.507812 34.882812 19.414062 34.945312 39.488281v8zm0 0"/><path d="m432 152h16v16h-16zm0 0"/><path d="m440 72v-16c4.417969 0 8-3.582031 8-8v-8c-.027344-22.082031-17.917969-39.9726562-40-40h-16c-22.082031.0273438-39.972656 17.917969-40 40v8c0 4.417969 3.582031 8 8 8v16c0 22.089844 17.910156 40 40 40s40-17.910156 40-40zm-48-56h16c13.253906 0 24 10.746094 24 24h-30.113281l-14.3125-7.160156c-3.078125-1.539063-6.796875-.929688-9.230469 1.503906l-5.65625 5.65625h-4.6875c0-13.253906 10.746094-24 24-24zm8 80c-13.253906 0-24-10.746094-24-24v-16c2.121094 0 4.15625-.84375 5.65625-2.34375l3.917969-3.921875 10.851562 5.425781c1.109375.554688 2.332031.839844 3.574219.839844h24v16c0 13.253906-10.746094 24-24 24zm0 0"/><path d="m104 400h-48c-30.914062.035156-55.9648438 25.085938-56 56v8c0 8.835938 7.164062 16 16 16h128c8.835938 0 16-7.164062 16-16v-8c-.035156-30.914062-25.085938-55.964844-56-56zm-12.128906 16-11.871094 27.6875-11.871094-27.6875zm-75.871094 40c.0625-20.074219 15.023438-36.980469 34.945312-39.488281l20.351563 47.488281h-55.296875zm128 8h-55.296875l20.351563-47.488281c19.921874 2.507812 34.882812 19.414062 34.945312 39.488281zm0 0"/><path d="m112 440h16v16h-16zm0 0"/><path d="m120 360v-16c4.417969 0 8-3.582031 8-8v-8c-.027344-22.082031-17.917969-39.972656-40-40h-16c-22.082031.027344-39.972656 17.917969-40 40v8c0 4.417969 3.582031 8 8 8v16c0 22.089844 17.910156 40 40 40s40-17.910156 40-40zm-48-56h16c13.253906 0 24 10.746094 24 24h-30.113281l-14.3125-7.199219c-3.078125-1.539062-6.796875-.933593-9.230469 1.503907l-5.65625 5.695312h-4.6875c0-13.253906 10.746094-24 24-24zm8 80c-13.253906 0-24-10.746094-24-24v-16c2.121094 0 4.15625-.84375 5.65625-2.34375l3.917969-3.921875 10.851562 5.425781c1.109375.554688 2.332031.839844 3.574219.839844h24v16c0 13.253906-10.746094 24-24 24zm0 0"/><path d="m424 400h-48c-30.914062.035156-55.964844 25.085938-56 56v8c0 8.835938 7.164062 16 16 16h128c8.835938 0 16-7.164062 16-16v-8c-.035156-30.914062-25.085938-55.964844-56-56zm-12.128906 16-11.871094 27.6875-11.871094-27.6875zm-75.871094 40c.0625-20.074219 15.023438-36.980469 34.945312-39.488281l20.351563 47.488281h-55.296875zm128 8h-55.296875l20.351563-47.488281c19.921874 2.507812 34.882812 19.414062 34.945312 39.488281zm0 0"/><path d="m432 440h16v16h-16zm0 0"/><path d="m440 360v-16c4.417969 0 8-3.582031 8-8v-8c-.027344-22.082031-17.917969-39.972656-40-40h-16c-22.082031.027344-39.972656 17.917969-40 40v8c0 4.417969 3.582031 8 8 8v16c0 22.089844 17.910156 40 40 40s40-17.910156 40-40zm-48-56h16c13.253906 0 24 10.746094 24 24h-30.113281l-14.3125-7.199219c-3.078125-1.539062-6.796875-.933593-9.230469 1.503907l-5.65625 5.695312h-4.6875c0-13.253906 10.746094-24 24-24zm8 80c-13.253906 0-24-10.746094-24-24v-16c2.121094 0 4.15625-.84375 5.65625-2.34375l3.917969-3.921875 10.851562 5.425781c1.109375.554688 2.332031.839844 3.574219.839844h24v16c0 13.253906-10.746094 24-24 24zm0 0"/><path d="m304.464844 266.695312 16.855468-2.808593c3.855469-.644531 6.679688-3.980469 6.679688-7.886719v-32c0-3.90625-2.824219-7.242188-6.679688-7.886719l-16.863281-2.808593 9.941407-13.90625c2.277343-3.183594 1.914062-7.546876-.855469-10.308594l-22.621094-22.625c-2.765625-2.769532-7.128906-3.132813-10.3125-.855469l-13.90625 9.925781-2.808594-16.855468c-.644531-3.855469-3.984375-6.683594-7.894531-6.679688h-32c-3.90625 0-7.242188 2.824219-7.886719 6.679688l-2.808593 16.863281-13.90625-9.941407c-3.183594-2.277343-7.546876-1.914062-10.308594.855469l-22.625 22.621094c-2.769532 2.765625-3.132813 7.128906-.855469 10.3125l9.925781 13.90625-16.855468 2.808594c-3.855469.644531-6.683594 3.984375-6.679688 7.894531v32c0 3.90625 2.824219 7.242188 6.679688 7.886719l16.863281 2.808593-9.941407 13.90625c-2.277343 3.183594-1.914062 7.546876.855469 10.308594l22.621094 22.625c2.765625 2.769532 7.128906 3.132813 10.3125.855469l13.90625-9.925781 2.808594 16.855468c.644531 3.855469 3.984375 6.683594 7.894531 6.679688h32c3.90625 0 7.242188-2.824219 7.886719-6.679688l2.808593-16.863281 13.90625 9.941407c3.183594 2.277343 7.546876 1.914062 10.308594-.855469l22.625-22.621094c2.769532-2.765625 3.132813-7.128906.855469-10.3125zm-13.023438 9.304688 5.992188 8.390625-13.042969 13.042969-8.390625-5.992188c-4.492188-3.210937-10.324219-3.875-15.425781-1.757812-5.101563 2.113281-8.75 6.710937-9.652344 12.15625l-1.699219 10.160156h-18.445312l-1.699219-10.167969c-.902344-5.445312-4.550781-10.042969-9.652344-12.15625-5.101562-2.117187-10.933593-1.453125-15.425781 1.757813l-8.390625 5.992187-13.042969-13.042969 5.992188-8.382812c3.210937-4.492188 3.875-10.324219 1.757812-15.425781-2.113281-5.101563-6.710937-8.75-12.15625-9.652344l-10.160156-1.699219v-18.445312l10.167969-1.699219c5.445312-.902344 10.042969-4.550781 12.15625-9.652344 2.117187-5.101562 1.453125-10.933593-1.757813-15.425781l-5.992187-8.390625 13.042969-13.042969 8.390624 5.992188c4.496094 3.210937 10.324219 3.875 15.425782 1.757812 5.101562-2.113281 8.75-6.710937 9.65625-12.15625l1.6875-10.160156h18.445312l1.699219 10.167969c.902344 5.445312 4.550781 10.042969 9.652344 12.15625 5.101562 2.117187 10.933593 1.453125 15.425781-1.757813l8.390625-5.992187 13.042969 13.042969-5.992188 8.382812c-3.210937 4.492188-3.875 10.324219-1.757812 15.425781 2.113281 5.101563 6.710937 8.75 12.15625 9.652344l10.160156 1.699219v18.445312l-10.167969 1.699219c-5.445312.902344-10.042969 4.550781-12.15625 9.652344-2.117187 5.101562-1.453125 10.933593 1.757813 15.425781zm0 0"/><path d="m240 200c-22.089844 0-40 17.910156-40 40s17.910156 40 40 40 40-17.910156 40-40c-.027344-22.082031-17.917969-39.972656-40-40zm0 64c-13.253906 0-24-10.746094-24-24s10.746094-24 24-24 24 10.746094 24 24-10.746094 24-24 24zm0 0"/><path d="m72 208h16v64h-16zm0 0"/><path d="m176 392h128v16h-128zm0 0"/><path d="m392 208h16v64h-16zm0 0"/><path d="m176 72h128v16h-128zm0 0"/></svg>